<?xml version="1.0" encoding="UTF-8"?>
<svg id="Layer_1" data-name="Layer 1" xmlns="http://www.w3.org/2000/svg" viewBox="0 0 341.14 257.32">
  <defs>
    <style>
      .cls-1 {
        fill: #231f20;
        stroke-width: 0px;
      }
    </style>
  </defs>
  <path class="cls-1" d="m314.45,200.4c-37.46,0-67.94-30.48-67.94-67.94s30.48-67.94,67.94-67.94c9.47,0,18.49,1.95,26.69,5.47C309.7,28.43,245.9,0,172.32,0S30.02,30.68,0,74.87c11.48-8.86,25.85-14.15,41.44-14.15,37.46,0,67.94,30.48,67.94,67.94s-30.48,67.94-67.94,67.94c-15.59,0-29.96-5.29-41.44-14.16,30.02,44.19,95.89,74.87,172.32,74.87,67.05,0,125.98-23.61,159.7-59.24-5.61,1.5-11.5,2.32-17.57,2.32Zm-46.51-172.15c7.8,0,14.12,6.32,14.12,14.12s-6.32,14.12-14.12,14.12-14.12-6.32-14.12-14.12,6.32-14.12,14.12-14.12Zm-183.19,28.25c-7.8,0-14.12-6.32-14.12-14.12s6.32-14.12,14.12-14.12,14.12,6.32,14.12,14.12-6.32,14.12-14.12,14.12ZM222.99,14.12c7.8,0,14.12,6.32,14.12,14.12s-6.32,14.12-14.12,14.12-14.12-6.32-14.12-14.12,6.32-14.12,14.12-14.12Zm-50.67,0c7.8,0,14.12,6.32,14.12,14.12s-6.32,14.12-14.12,14.12-14.12-6.32-14.12-14.12,6.32-14.12,14.12-14.12Zm-47.13,0c7.8,0,14.12,6.32,14.12,14.12s-6.32,14.12-14.12,14.12-14.12-6.32-14.12-14.12,6.32-14.12,14.12-14.12Zm-40.43,214.95c-7.8,0-14.12-6.32-14.12-14.12s6.32-14.12,14.12-14.12,14.12,6.32,14.12,14.12-6.32,14.12-14.12,14.12Zm46.36,13.89c-7.8,0-14.12-6.32-14.12-14.12s6.32-14.12,14.12-14.12,14.12,6.32,14.12,14.12-6.32,14.12-14.12,14.12Zm46.83,5.93c-7.8,0-14.12-6.32-14.12-14.12s6.32-14.12,14.12-14.12,14.12,6.32,14.12,14.12-6.32,14.12-14.12,14.12Zm45.04-5.69c-7.8,0-14.12-6.32-14.12-14.12s6.32-14.12,14.12-14.12,14.12,6.32,14.12,14.12-6.32,14.12-14.12,14.12Zm7.76-45.84l-3.47-60.34c-1.02-19.16-2.24-42.2-2.04-59.32h-.61c-4.69,16.11-10.4,33.23-17.33,52.19l-24.26,66.66h-13.46l-22.22-65.44c-6.52-19.37-12.03-37.1-15.9-53.41h-.41c-.41,17.12-1.43,40.16-2.65,60.75l-3.67,58.92h-16.92l9.58-137.41h22.63l23.44,66.46c5.71,16.92,10.4,32.01,13.86,46.28h.61c3.46-13.86,8.36-28.95,14.47-46.28l24.46-66.46h22.63l8.56,137.41h-17.33Zm37.2,31.48c-7.8,0-14.12-6.32-14.12-14.12s6.32-14.12,14.12-14.12,14.12,6.32,14.12,14.12-6.32,14.12-14.12,14.12Z"/>
</svg>