<?xml version="1.0" encoding="UTF-8"?>
<svg id="Layer_1" data-name="Layer 1" xmlns="http://www.w3.org/2000/svg" viewBox="0 0 161.12 131.71">
  <defs>
    <style>
      .cls-1 {
        fill: #231f20;
        stroke-width: 0px;
      }
    </style>
  </defs>
  <path class="cls-1" d="m2.2,120.11c3.9,2.4,9.6,4.4,15.6,4.4,8.9,0,14.1-4.7,14.1-11.5,0-6.3-3.6-9.9-12.7-13.4-11-3.9-17.8-9.6-17.8-19.1,0-10.5,8.7-18.3,21.8-18.3,6.9,0,11.9,1.6,14.9,3.3l-2.4,7.1c-2.2-1.2-6.7-3.2-12.8-3.2-9.2,0-12.7,5.5-12.7,10.1,0,6.3,4.1,9.4,13.4,13,11.4,4.4,17.2,9.9,17.2,19.8,0,10.4-7.7,19.4-23.6,19.4-6.5,0-13.6-1.9-17.2-4.3l2.2-7.3Z"/>
  <path class="cls-1" d="m36.35,70.66H15.85v-7.4h49.9v7.4h-20.6v60h-8.8v-60Z"/>
  <path class="cls-1" d="m109.3,72l-39.9.02c-15.1,0-21.5,6.71-21.49,15.71,0,10,6.61,16.4,21.51,16.39l39.9-.02v8.8s-39.3.02-39.3.02c-20.7,0-29.21-10.89-29.21-25.49,0-13.8,7.89-24.2,28.79-24.21l39.7-.02v8.8Z"/>
  <path class="cls-1" d="m105.81,64.1c5.3-.8,11.6-1.4,18.5-1.4,12.5,0,21.4,2.9,27.3,8.4,6,5.5,9.5,13.3,9.5,24.2s-3.4,20-9.7,26.2c-6.3,6.3-16.7,9.7-29.8,9.7-6.2,0-11.4-.3-15.8-.8v-66.3Zm8.7,59.6c2.2.4,5.4.5,8.8.5,18.6,0,28.7-10.4,28.7-28.6.1-15.9-8.9-26-27.3-26-4.5,0-7.9.4-10.2.9v53.2Z"/>
  <path class="cls-1" d="m93.01,63.25v67.4h-8.7V63.25h8.7Z"/>
  <path class="cls-1" d="m90.03,34.1c0,23.2-14.1,35.5-31.3,35.5s-30.3-13.8-30.3-34.2C28.43,14,41.73,0,59.73,0s30.3,14.1,30.3,34.1Zm-52.3,1.1c0,14.4,7.8,27.3,21.5,27.3s21.6-12.7,21.6-28c0-13.4-7-27.4-21.5-27.4s-21.6,13.3-21.6,28.1Z"/>
</svg>